<?xml version="1.0" encoding="iso-8859-1"?>
<!-- Uploaded to: SVG Repo, www.svgrepo.com, Generator: SVG Repo Mixer Tools -->
<svg height="800px" width="800px" version="1.1" id="Layer_1" xmlns="http://www.w3.org/2000/svg" xmlns:xlink="http://www.w3.org/1999/xlink" 
	 viewBox="0 0 511.992 511.992" xml:space="preserve">
<path style="fill:#ED5564;" d="M179.982,501.336c0,5.859-4.797,10.656-10.671,10.656H38.609c-5.859,0-10.656-4.797-10.656-10.656
	V10.672C27.953,4.797,32.75,0,38.609,0H169.31c5.875,0,10.671,4.797,10.671,10.672L179.982,501.336L179.982,501.336z"/>
<path style="fill:#E6E9ED;" d="M70.609,287.996c-5.891,0-10.656-4.766-10.656-10.656v-42.671c0-5.891,4.766-10.672,10.656-10.672
	c5.906,0,10.672,4.781,10.672,10.672v42.671C81.281,283.23,76.515,287.996,70.609,287.996z"/>
<path style="fill:#FFCE54;" d="M91.952,341.34c0,11.779-9.546,21.326-21.343,21.326c-11.781,0-21.328-9.547-21.328-21.326
	c0-11.781,9.546-21.344,21.328-21.344C82.406,319.996,91.952,329.558,91.952,341.34z"/>
<path style="fill:#434A54;" d="M70.609,330.668c-5.891,0-10.656-4.766-10.656-10.672V309.34c0-5.891,4.766-10.672,10.656-10.672
	c5.906,0,10.672,4.781,10.672,10.672v10.656C81.281,325.902,76.515,330.668,70.609,330.668z"/>
<path style="fill:#656D78;" d="M70.609,373.338c-17.64,0-32-14.359-32-31.998c0-17.641,14.359-32,32-32
	c17.656,0,31.999,14.359,31.999,32C102.608,358.978,88.265,373.338,70.609,373.338z M70.609,330.668
	c-5.875,0-10.656,4.781-10.656,10.672c0,5.873,4.781,10.654,10.656,10.654c5.891,0,10.672-4.781,10.672-10.654
	C81.281,335.449,76.499,330.668,70.609,330.668z"/>
<g>
	<path style="fill:#DA4453;" d="M135.967,74.671H71.968c-5.891,0-10.672-4.781-10.672-10.672s4.781-10.656,10.672-10.656h63.999
		c5.891,0,10.672,4.765,10.672,10.656S141.857,74.671,135.967,74.671z"/>
	<path style="fill:#DA4453;" d="M135.967,106.671H71.968c-5.891,0-10.672-4.781-10.672-10.672s4.781-10.656,10.672-10.656h63.999
		c5.891,0,10.672,4.765,10.672,10.656S141.857,106.671,135.967,106.671z"/>
	<path style="fill:#DA4453;" d="M135.967,138.67H71.968c-5.891,0-10.672-4.781-10.672-10.671s4.781-10.656,10.672-10.656h63.999
		c5.891,0,10.672,4.766,10.672,10.656S141.857,138.67,135.967,138.67z"/>
	<path style="fill:#DA4453;" d="M82.921,469.336c0,5.891-4.781,10.656-10.672,10.656s-10.672-4.766-10.672-10.656
		s4.781-10.672,10.672-10.672S82.921,463.445,82.921,469.336z"/>
	<path style="fill:#DA4453;" d="M114.92,469.336c0,5.891-4.781,10.656-10.672,10.656s-10.671-4.766-10.671-10.656
		s4.781-10.672,10.671-10.672S114.92,463.445,114.92,469.336z"/>
	<path style="fill:#DA4453;" d="M146.92,469.336c0,5.891-4.781,10.656-10.672,10.656c-5.89,0-10.671-4.766-10.671-10.656
		s4.781-10.672,10.671-10.672C142.139,458.664,146.92,463.445,146.92,469.336z"/>
</g>
<path style="fill:#5D9CEC;" d="M332.011,501.336c0,5.859-4.797,10.656-10.655,10.656H190.654c-5.875,0-10.672-4.797-10.672-10.656
	V10.672C179.982,4.797,184.779,0,190.654,0h130.702c5.858,0,10.655,4.797,10.655,10.672L332.011,501.336L332.011,501.336z"/>
<path style="fill:#E6E9ED;" d="M222.653,287.996c-5.891,0-10.672-4.766-10.672-10.656v-42.671c0-5.891,4.781-10.672,10.672-10.672
	s10.656,4.781,10.656,10.672v42.671C233.309,283.23,228.543,287.996,222.653,287.996z"/>
<path style="fill:#FFCE54;" d="M243.981,341.34c0,11.779-9.547,21.326-21.328,21.326s-21.343-9.547-21.343-21.326
	c0-11.781,9.562-21.344,21.343-21.344S243.981,329.558,243.981,341.34z"/>
<path style="fill:#434A54;" d="M222.653,330.668c-5.891,0-10.672-4.766-10.672-10.672V309.34c0-5.891,4.781-10.672,10.672-10.672
	s10.656,4.781,10.656,10.672v10.656C233.309,325.902,228.543,330.668,222.653,330.668z"/>
<path style="fill:#656D78;" d="M222.653,373.338c-17.656,0-31.999-14.359-31.999-31.998c0-17.641,14.343-32,31.999-32
	c17.641,0,32,14.359,32,32C254.652,358.978,240.293,373.338,222.653,373.338z M222.653,330.668c-5.891,0-10.672,4.781-10.672,10.672
	c0,5.873,4.781,10.654,10.672,10.654c5.875,0,10.656-4.781,10.656-10.654C233.309,335.449,228.528,330.668,222.653,330.668z"/>
<g>
	<path style="fill:#4A89DC;" d="M287.996,74.671h-64c-5.891,0-10.672-4.781-10.672-10.672s4.782-10.655,10.672-10.655h64
		c5.891,0,10.672,4.765,10.672,10.656S293.887,74.671,287.996,74.671z"/>
	<path style="fill:#4A89DC;" d="M287.996,106.671h-64c-5.891,0-10.672-4.781-10.672-10.672s4.782-10.656,10.672-10.656h64
		c5.891,0,10.672,4.765,10.672,10.656S293.887,106.671,287.996,106.671z"/>
	<path style="fill:#4A89DC;" d="M287.996,138.67h-64c-5.891,0-10.672-4.781-10.672-10.671s4.781-10.656,10.672-10.656h64
		c5.891,0,10.672,4.766,10.672,10.656S293.887,138.67,287.996,138.67z"/>
	<path style="fill:#4A89DC;" d="M234.95,469.336c0,5.891-4.781,10.656-10.672,10.656s-10.672-4.766-10.672-10.656
		s4.781-10.672,10.672-10.672S234.95,463.445,234.95,469.336z"/>
	<path style="fill:#4A89DC;" d="M266.949,469.336c0,5.891-4.781,10.656-10.672,10.656s-10.671-4.766-10.671-10.656
		s4.781-10.672,10.671-10.672C262.167,458.664,266.949,463.445,266.949,469.336z"/>
	<path style="fill:#4A89DC;" d="M298.949,469.336c0,5.891-4.781,10.656-10.672,10.656s-10.672-4.766-10.672-10.656
		s4.781-10.672,10.672-10.672S298.949,463.445,298.949,469.336z"/>
</g>
<path style="fill:#ED5564;" d="M484.039,501.336c0,5.859-4.797,10.656-10.655,10.656H342.683c-5.875,0-10.672-4.797-10.672-10.656
	V10.672C332.011,4.797,336.808,0,342.683,0h130.701c5.858,0,10.655,4.797,10.655,10.672V501.336z"/>
<path style="fill:#E6E9ED;" d="M374.682,287.996c-5.891,0-10.672-4.766-10.672-10.656v-42.671c0-5.891,4.781-10.672,10.672-10.672
	c5.89,0,10.671,4.781,10.671,10.672v42.671C385.352,283.23,380.571,287.996,374.682,287.996z"/>
<path style="fill:#FFCE54;" d="M396.009,341.34c0,11.779-9.547,21.326-21.327,21.326c-11.781,0-21.327-9.547-21.327-21.326
	c0-11.781,9.546-21.344,21.327-21.344C386.462,319.996,396.009,329.558,396.009,341.34z"/>
<path style="fill:#434A54;" d="M374.682,330.668c-5.891,0-10.672-4.766-10.672-10.672V309.34c0-5.891,4.781-10.672,10.672-10.672
	c5.89,0,10.671,4.781,10.671,10.672v10.656C385.352,325.902,380.571,330.668,374.682,330.668z"/>
<path style="fill:#656D78;" d="M374.682,373.338c-17.64,0-31.999-14.359-31.999-31.998c0-17.641,14.359-32,31.999-32
	s31.999,14.359,31.999,32C406.681,358.978,392.321,373.338,374.682,373.338z M374.682,330.668c-5.891,0-10.672,4.781-10.672,10.672
	c0,5.873,4.781,10.654,10.672,10.654c5.874,0,10.671-4.781,10.671-10.654C385.352,335.449,380.556,330.668,374.682,330.668z"/>
<g>
	<path style="fill:#DA4453;" d="M440.024,74.671h-64c-5.89,0-10.655-4.781-10.655-10.672s4.766-10.656,10.655-10.656h64
		c5.891,0,10.672,4.765,10.672,10.656S445.915,74.671,440.024,74.671z"/>
	<path style="fill:#DA4453;" d="M440.024,106.671h-64c-5.89,0-10.655-4.781-10.655-10.672s4.766-10.656,10.655-10.656h64
		c5.891,0,10.672,4.765,10.672,10.656S445.915,106.671,440.024,106.671z"/>
	<path style="fill:#DA4453;" d="M440.024,138.67h-64c-5.89,0-10.655-4.781-10.655-10.671s4.766-10.656,10.655-10.656h64
		c5.891,0,10.672,4.766,10.672,10.656S445.915,138.67,440.024,138.67z"/>
	<path style="fill:#DA4453;" d="M386.977,469.336c0,5.891-4.781,10.656-10.672,10.656c-5.89,0-10.655-4.766-10.655-10.656
		s4.766-10.672,10.655-10.672C382.196,458.664,386.977,463.445,386.977,469.336z"/>
	<path style="fill:#DA4453;" d="M418.977,469.336c0,5.891-4.781,10.656-10.672,10.656s-10.656-4.766-10.656-10.656
		s4.766-10.672,10.656-10.672S418.977,463.445,418.977,469.336z"/>
	<path style="fill:#DA4453;" d="M450.977,469.336c0,5.891-4.781,10.656-10.672,10.656s-10.656-4.766-10.656-10.656
		s4.766-10.672,10.656-10.672S450.977,463.445,450.977,469.336z"/>
</g>
</svg>